#!OML:ASF F:\VICON\USERDATA\INSTALL\rory3\rory3.ASF
:FULLY-SPECIFIED
:DEGREES
65
root -0.0477158 18.1341 -11.428 -1.2039 -4.11857 -6.72106
lowerback 10.6385 1.66323 5.81995
upperback 1.42991 2.9666 1.92474
thorax -4.27595 1.38493 -1.67545
lowerneck -15.5103 -3.12142 -0.891824
upperneck 18.1767 -3.7867 -1.39262
head 8.18619 -1.99643 -0.752605
rclavicle -4.74831e-016 1.63128e-014
rhumerus -24.2298 -7.97757 -80.994
rradius 31.7718
rwrist 0.38065
rhand -16.2705 23.7025
rfingers 7.12502
rthumb 9.9392 -6.04288
lclavicle -4.74831e-016 1.63128e-014
lhumerus -36.9694 3.06718 83.7159
lradius 25.3599
lwrist -0.656247
lhand -22.851 30.5095
lfingers 7.12502
lthumb 3.58703 60.459
rfemur 1.23786 9.11392 32.9499
rtibia 25.058
rfoot -20.3229 -7.88083
rtoes 0.998554
lfemur -30.299 0.840446 -9.49206
ltibia 40.7905
lfoot -9.41525 0.899129
ltoes 1.24613
66
root -0.0359151 18.1282 -11.2612 -1.04779 -4.21402 -6.77806
lowerback 10.4574 1.70067 5.91332
upperback 1.43757 3.01117 1.90167
thorax -4.15793 1.40903 -1.74989
lowerneck -15.6788 -3.13578 -0.912242
upperneck 18.1521 -3.80272 -1.37432
head 8.20874 -2.00342 -0.74789
rclavicle -1.38427e-014 -1.91951e-015
rhumerus -23.8203 -7.70225 -81.1009
rradius 32.4515
rwrist -0.128465
rhand -15.9857 22.037
rfingers 7.12502
rthumb 10.214 -7.69506
lclavicle -1.38427e-014 -1.91951e-015
lhumerus -36.943 3.39029 83.7672
lradius 24.6894
lwrist -0.515214
lhand -22.7518 30.7492
lfingers 7.12502
lthumb 3.68282 60.6971
rfemur 1.9751 9.086 32.9834
rtibia 24.4023
rfoot -20.4855 -7.83594
rtoes -0.357834
lfemur -30.1323 0.408174 -9.35304
ltibia 37.8706
lfoot -8.47675 1.774
ltoes 0.866486
67
root -0.0170092 18.0909 -11.0884 -0.788299 -4.60147 -6.84044
lowerback 10.176 1.89901 6.08118
upperback 1.36222 3.27178 1.84189
thorax -4.04887 1.53699 -1.92843
lowerneck -15.6873 -3.22378 -0.91118
upperneck 18.1775 -3.94231 -1.28665
head 8.22006 -2.06028 -0.735546
rclavicle 8.22627e-015 -7.86442e-015
rhumerus -23.7193 -7.51611 -81.0903
rradius 32.9014
rwrist -0.380484
rhand -16.2127 21.7377
rfingers 7.12502
rthumb 9.99496 -8.00503
lclavicle 8.22627e-015 -7.86442e-015
lhumerus -37.0676 3.58732 83.7249
lradius 24.3494
lwrist -1.24832
lhand -21.3771 31.6685
lfingers 7.12502
lthumb 5.01024 61.5893
rfemur 2.70887 9.28665 32.9812
rtibia 23.5817
rfoot -20.4434 -7.78787
rtoes -2.77655
lfemur -30.6334 -0.0866129 -9.16608
ltibia 35.1024
lfoot -7.71932 3.53222
ltoes -6.69272
68
root -0.0114158 18.1059 -10.9434 -0.838996 -4.38105 -7.0267
lowerback 10.6883 1.85 6.29212
upperback 1.21627 3.27982 1.83364
thorax -4.47475 1.52081 -2.08176
lowerneck -15.5643 -3.24894 -0.765197
upperneck 18.0983 -3.9996 -1.35807
head 8.16636 -2.08485 -0.786036
rclavicle -2.98332e-014 -7.7526e-015
rhumerus -23.6555 -7.65867 -81.0496
rradius 33.0319
rwrist -0.0162881
rhand -16.5624 22.1129
rfingers 7.12502
rthumb 9.65757 -7.64572
lclavicle -2.98332e-014 -7.7526e-015
lhumerus -37.2235 4.37557 83.1643
lradius 24.4354
lwrist -4.74792
lhand -17.6294 35.3095
lfingers 7.12502
lthumb 8.62799 65.1132
rfemur 3.58538 9.04237 33.207
rtibia 22.95
rfoot -20.2868 -7.88321
rtoes -3.34535
lfemur -29.9253 -0.986887 -8.70797
ltibia 32.2998
lfoot -8.21573 4.11464
ltoes -3.15366
69
root -0.000191565 18.1059 -10.7757 -0.760672 -4.3227 -7.10154
lowerback 10.7307 1.79019 6.34608
upperback 1.04177 3.22238 1.87142
thorax -4.68616 1.4817 -2.0707
lowerneck -15.1709 -3.16526 -0.851577
upperneck 18.0531 -3.85762 -1.4126
head 8.08267 -2.02954 -0.765527
rclavicle -3.55017e-014 -2.39039e-014
rhumerus -23.6743 -7.39518 -80.9952
rradius 33.2693
rwrist -0.109957
rhand -16.4929 22.4611
rfingers 7.12502
rthumb 9.72465 -7.29438
lclavicle -3.55017e-014 -2.39039e-014
lhumerus -37.8502 3.84862 83.7422
lradius 23.8051
lwrist -1.53522
lhand -20.9989 33.3275
lfingers 7.12502
lthumb 5.37543 63.2393
rfemur 4.35106 8.87192 33.2546
rtibia 22.4402
rfoot -20.0378 -7.78139
rtoes -3.12787
lfemur -29.4757 -2.05637 -8.2796
ltibia 29.2999
lfoot -8.26443 5.12257
ltoes -2.2611
70
root 0.0172642 18.106 -10.596 -0.644369 -4.44901 -7.12327
lowerback 10.3674 1.81463 6.33519
upperback 0.990156 3.22931 1.92922
thorax -4.54122 1.48994 -1.99068
lowerneck -14.6238 -3.14395 -0.986457
upperneck 17.8183 -3.79456 -1.46422
head 7.90941 -2.01424 -0.739616
rclavicle -3.4441e-014 3.40419e-015
rhumerus -23.4911 -7.03029 -80.9182
rradius 33.5139
rwrist -0.60926
rhand -16.2353 22.3713
rfingers 7.12502
rthumb 9.97312 -7.37239
lclavicle -3.4441e-014 3.40419e-015
lhumerus -38.2181 3.9212 84.0107
lradius 23.2567
lwrist -0.647343
lhand -22.2251 32.2831
lfingers 7.12502
lthumb 4.19145 62.2217
rfemur 5.25613 8.76165 33.1801
rtibia 21.6425
rfoot -19.674 -7.54239
rtoes -2.21329
lfemur -29.4064 -3.19825 -7.85249
ltibia 27.2342
lfoot -8.47749 6.57775
ltoes -3.17567
71
root 0.0359976 18.0857 -10.4256 -0.442167 -4.74463 -7.23102
lowerback 10.1546 1.95668 6.46909
upperback 1.05246 3.4102 1.91269
thorax -4.334 1.58458 -2.09437
lowerneck -14.8981 -3.16802 -0.959909
upperneck 17.7422 -3.83947 -1.41519
head 7.93302 -2.02866 -0.736885
rclavicle -2.17995e-014 3.2551e-015
rhumerus -23.0785 -6.99176 -80.9131
rradius 33.9041
rwrist -0.936351
rhand -16.0909 21.7643
rfingers 7.12502
rthumb 10.1125 -7.97269
lclavicle -2.17995e-014 3.2551e-015
lhumerus -37.8853 4.07753 84.0641
lradius 22.5612
lwrist -0.818892
lhand -22.0804 32.3544
lfingers 7.12502
lthumb 4.33109 62.2901
rfemur 5.9574 8.85673 33.1993
rtibia 21.0455
rfoot -19.3852 -7.36298
rtoes -2.08968
lfemur -29.4853 -4.42537 -7.1848
ltibia 25.0716
lfoot -7.93455 8.39731
ltoes -3.4903
72
root 0.0518921 18.0978 -10.2565 -0.28174 -4.86854 -7.30078
lowerback 10.0251 2.07051 6.61718
upperback 1.19275 3.5542 1.83466
thorax -4.08858 1.66358 -2.26563
lowerneck -15.6214 -3.19539 -0.808632
upperneck 17.8457 -3.91092 -1.37384
head 8.09302 -2.04753 -0.771388
rclavicle 2.04779e-014 3.09607e-014
rhumerus -22.5472 -7.24333 -80.9288
rradius 34.1555
rwrist -0.892353
rhand -16.1099 21.7874
rfingers 7.12502
rthumb 10.0942 -7.95045
lclavicle 2.04779e-014 3.09607e-014
lhumerus -37.4903 4.24922 83.9374
lradius 22.3436
lwrist -1.99304
lhand -21.9152 33.0124
lfingers 7.12502
lthumb 4.49062 62.9448
rfemur 6.59447 8.98108 33.2337
rtibia 20.6141
rfoot -19.2663 -7.2896
rtoes -2.52942
lfemur -29.1605 -5.05515 -6.86697
ltibia 23.1979
lfoot -8.48168 9.32261
ltoes 0.657314
73
root 0.0757326 18.0941 -10.076 -0.2812 -4.90392 -7.3727
lowerback 9.89388 2.11896 6.84325
upperback 1.28008 3.62386 1.78616
thorax -3.90055 1.70253 -2.44072
lowerneck -15.7801 -3.23795 -0.643626
upperneck 17.7938 -3.98516 -1.48393
head 8.09721 -2.08263 -0.845552
rclavicle 7.27428e-015 -1.63997e-015
rhumerus -22.1762 -7.51779 -80.8886
rradius 34.1594
rwrist -0.826595
rhand -16.1576 21.9646
rfingers 7.12502
rthumb 10.0481 -7.77551
lclavicle 7.27428e-015 -1.63997e-015
lhumerus -37.5086 4.93701 83.4797
lradius 22.8044
lwrist -5.28431
lhand -18.353 37.0829
lfingers 7.12502
lthumb 7.92969 66.9142
rfemur 7.23678 8.81598 33.2227
rtibia 20.5493
rfoot -19.2415 -7.1814
rtoes -3.90188
lfemur -28.787 -5.6509 -6.66503
ltibia 21.5035
lfoot -8.99439 10.2908
ltoes -0.195077
74
root 0.100897 18.082 -9.89393 -0.272419 -5.02843 -7.1301
lowerback 9.86953 2.19599 6.68677
upperback 1.17175 3.70957 1.69452
thorax -3.99671 1.74133 -2.46139
lowerneck -15.4848 -3.33491 -0.694959
upperneck 17.6995 -4.10613 -1.50127
head 8.01343 -2.14554 -0.849244
rclavicle 1.01753e-014 4.19933e-014
rhumerus -22.0732 -7.87556 -80.7531
rradius 34.0531
rwrist -0.786399
rhand -15.8344 22.0675
rfingers 7.12502
rthumb 10.3599 -7.6573
lclavicle 1.01753e-014 4.19933e-014
lhumerus -37.956 4.21866 84.1279
lradius 22.3834
lwrist -2.08332
lhand -22.4664 32.8623
lfingers 7.12502
lthumb 3.9584 62.8053
rfemur 7.78964 8.67528 32.8245
rtibia 20.6692
rfoot -19.2516 -6.9284
rtoes -4.59255
lfemur -28.6457 -6.22523 -6.8133
ltibia 20.3882
lfoot -9.61104 11.3992
ltoes -2.22459
